<svg width="132.01712341308593px" height="121.26027221679688px" xmlns="http://www.w3.org/2000/svg" viewBox="183.99143829345704 14.369863891601561 132.01712341308593 121.26027221679688" style="background: rgba(0, 0, 0, 0);" preserveAspectRatio="xMidYMid"><defs><filter id="editing-jagged" x="-100%" y="-100%" width="300%" height="300%"><feTurbulence result="turb" baseFrequency="0.1" numOctaves="1" seed="1"></feTurbulence><feDisplacementMap in="SourceGraphic" in2="turb" scale="10"></feDisplacementMap></filter></defs><g filter="url(#editing-jagged)"><g transform="translate(210.10001301765442, 96.76000213623047)"><path d="M2.30-9.47L2.30-9.47L2.30-9.47Q2.30-11.97 2.94-15.17L2.94-15.17L8.13-42.24L22.27-42.24L17.15-14.98L17.15-14.98Q16.58-11.97 16.58-9.76L16.58-9.76L16.58-9.76Q16.58-7.55 17.50-6.40L17.50-6.40L17.50-6.40Q18.43-5.25 20.16-5.25L20.16-5.25L20.16-5.25Q21.89-5.25 22.98-5.70L22.98-5.70L22.98-5.70Q24.06-6.14 24.96-7.23L24.96-7.23L24.96-7.23Q26.69-9.41 27.78-14.98L27.78-14.98L32.96-42.24L42.62-42.24L37.50-15.04L37.50-15.04Q35.71-5.95 30.78-2.30L30.78-2.30L30.78-2.30Q25.98 1.28 16.51 1.28L16.51 1.28L16.51 1.28Q9.41 1.28 5.63-1.79L5.63-1.79L5.63-1.79Q2.30-4.48 2.30-9.47ZM44.93-6.40L44.93-6.40L44.93-6.40Q44.93-8.13 45.82-12.48L45.82-12.48L49.22-29.76L45.44-29.76L45.70-31.68L45.70-31.68Q53.38-33.98 60.80-39.62L60.80-39.62L63.87-39.62L62.34-32.64L67.33-32.64L66.75-29.76L61.82-29.76L58.56-12.48L58.56-12.48Q57.73-8.51 57.73-7.17L57.73-7.17L57.73-7.17Q57.73-4.10 60.42-3.46L60.42-3.46L60.42-3.46Q59.78-1.28 57.47 0L57.47 0L57.47 0Q55.17 1.28 51.90 1.28L51.90 1.28L51.90 1.28Q48.64 1.28 46.78-0.77L46.78-0.77L46.78-0.77Q44.93-2.82 44.93-6.40ZM65.09-3.78L65.09-3.78L65.09-3.78Q65.09-6.21 66.98-7.55L66.98-7.55L66.98-7.55Q68.86-8.90 71.55-8.90L71.55-8.90L71.55-8.90Q74.24-8.90 75.87-7.55L75.87-7.55L75.87-7.55Q77.50-6.21 77.50-3.78L77.50-3.78L77.50-3.78Q77.50-1.34 75.68-0.03L75.68-0.03L75.68-0.03Q73.86 1.28 71.17 1.28L71.17 1.28L71.17 1.28Q68.48 1.28 66.78-0.03L66.78-0.03L66.78-0.03Q65.09-1.34 65.09-3.78Z" fill="#444"></path></g></g><style>text {
  font-size: 64px;
  font-family: Arial Black;
  dominant-baseline: central;
  text-anchor: middle;
}</style></svg>